<svg id="Layer_1" data-name="Layer 1" xmlns="http://www.w3.org/2000/svg" width="523" height="293" viewBox="0 0 523 293">
  <title>Untitled-1</title>
  <g>
    <path d="M29,74l11,2c4-20,5-24,10-40C30,61,13,92,12,103-4,99,0,83,3,76S35,30,57,14V12h0C62,6,72,1,79,0s9,3,4,7L76,26,71,44C83,24,94,0,102,0s16,2,19,9-5,61-49,73c4,16,41,73,52,75s-14,14-25,3S66,113,58,88c-6,24-10,47-4,42s2-1,1,2-7,10-13,9a8,8,0,0,1-8-5c-4-7-1-30,4-55Zm34-1a11,11,0,0,1,8,0c36-15,29-62,29-62S66,54,61,75Z" transform="translate(0 0)"/>
    <path d="M153,63c1-4,11-7,15-7h4a2,2,0,0,1,0,3h-1c-2,1-11,31-14,43l25-24c2-1,2,3,1,4l-29,28c-5,21-13,48-18,52h-5c-25-2-17-29,7-48l3-14c-9,11-19,19-25,18s6-55,9-58h0c3-4,15-10,19-7h0a3,3,0,0,1-1,3h-1c-1,1-21,42-18,48s12-11,18-18A199,199,0,0,1,153,63Zm-25,90c3-5,6-18,8-27C117,144,124,160,128,152Z" transform="translate(0 0)"/>
    <path d="M215,107c3,0,18-21,22-26s2,3,2,4-26,38-34,37-7-2-7-12c-5,5-10,12-15,12s-13-4-13-11,11-53,25-55,15,2,19,3,9-3,13-3,5,3,3,5S212,107,215,107Zm-29,6c3-1,10-6,14-15s8-28,10-34C194,56,180,115,186,114Z" transform="translate(0 0)"/>
    <path d="M282,67c-1,1-17,37-13,43s24-24,29-29,2,3,2,4l-14,16c-10,12-19,22-26,21s1-47,7-58c-5,1-15,14-17,19s-12,32-8,36-1,2-3,3c-26,9,2-58,0-59s11-7,16-7,4,2,1,4l-2,5c5-4,11-10,15-9S286,62,282,67Z" transform="translate(0 0)"/>
  </g>
  <g>
    <path d="M194,218h-5c4-3,4-4-1-5H173c-15,27-28,58-17,52s2-1,1,2a15,15,0,0,1-17,12c-6-1-12-7-10-19s12-30,20-45l-17,2h-3c-1-1-1-2-1-3s7-12,11-12h19c13-19,28-38,44-52-18,6-41,20-46,29-12-9-4-18,0-20s50-25,75-27c3,0,12-1,14,3a5,5,0,0,1-2,5c-1,1-39,88-38,104s28-30,29-31,3,4,2,5-31,49-46,47S186,243,194,218Zm4-12c6-19,16-40,21-53-10,8-28,29-40,49Z" transform="translate(0 0)"/>
    <path d="M253,153c2-4,11-7,16-7s4,3,2,5-33,83-30,89,23-24,27-28,2,3,1,4l-14,18c-10,12-19,23-26,20S248,163,253,153Z" transform="translate(0 0)"/>
    <path d="M302,217l-13,16c-10,12-19,22-26,21s0-44,9-71c-7-2-14-5-15-7s9-5,20-7a43,43,0,0,1,4-7c2-6,14-12,20-8s0,2-1,3h-1l-5,11c15-1,28,0,29,1h0c3,1,8,8,6,9H292c-10,24-21,61-19,65s23-25,28-29S302,216,302,217Zm-35-39,7,2v-3h-8Z" transform="translate(0 0)"/>
    <path d="M334,188h2a2,2,0,0,1,2,2l-2,2-5,11,14-5c1,1,1,3,1,4l-17,7c-9,21-22,48-34,46s-5-54-2-59,9-7,14-7a4,4,0,0,1,4,2,3,3,0,0,1-1,4c-1,1-13,42-8,48s13-17,21-33C307,216,320,188,334,188Zm-11,16s1,1,3,0l2-3,2-5C326,196,321,201,322,204Z" transform="translate(0 0)"/>
    <path d="M374,239c3,0,18-21,22-26s2,3,2,4-26,38-34,37-7-2-7-12c-5,5-10,12-15,12s-13-4-13-11,11-53,25-55,15,2,19,3,9-3,13-3,5,3,3,5S370,239,374,239Zm-29,6c3-1,10-6,14-15s8-28,10-34C353,188,338,247,344,246Z" transform="translate(0 0)"/>
    <path d="M431,217l-13,16c-10,12-19,22-26,21s0-44,9-71c-7-2-14-5-15-7s9-5,20-7a43,43,0,0,1,4-7c2-6,14-12,20-8s0,2-1,3h-1l-5,11c15-1,28,0,29,1h0c3,1,8,8,6,9H421c-10,24-21,61-19,65s23-25,28-29S431,216,431,217Zm-35-39,7,2v-3h-8Z" transform="translate(0 0)"/>
    <path d="M471,215c-10,12-31,39-44,39s-10,0-13-11,13-55,24-55,21,5,20,12-8,21-29,25c-2,4-3,16,1,17s36-27,40-30A2,2,0,0,1,471,215Zm-24-19c-4,4-10,15-15,24C445,216,450,202,447,196Z" transform="translate(0 0)"/>
    <path d="M476,225c0,7-12,9-13,0s5-27,8-31,16-9,18-4a2,2,0,0,1-1,2s-6,7-11,18l13-11v-3c2-3,11-7,16-7s3,0,3,2a4,4,0,0,1-1,4c-1,1-20,42-17,48s23-25,28-29,2,3,2,4l-13,16c-10,12-20,22-26,21s-4-26,1-42l3-6-13,11c-1,4-2,6-1,8S475,225,476,225Z" transform="translate(0 0)"/>
  </g>
  <path d="M239,273l28-3,33-2H406l28,2h6a4,4,0,0,1,0,3v5H424l-12,3-12,4-15,5H370l-3-2a4,4,0,0,1,0-2h1l14-3,14-6H366l-33,2-33,3-30,3-24,3-15,4h-3a5,5,0,0,1-1-3,19,19,0,0,1,1-5l2-5,4-4Z" transform="translate(0 0)"/>
</svg>
